<svg width="64" height="41" viewBox="0 0 64 41" fill="none" xmlns="http://www.w3.org/2000/svg">
<g clip-path="url(#clip0)">
<path d="M20.8502 7.42237C20.1476 7.42572 19.4536 7.2656 18.8221 6.95443C17.679 6.41965 16.9618 5.2097 16.9507 3.79253C16.9375 2.33525 17.6547 1.07405 18.8221 0.503618C19.4496 0.181159 20.1439 0.0138992 20.848 0.0156291C21.4081 0.00707208 21.9645 0.110123 22.4851 0.318886C23.0058 0.527649 23.4806 0.838027 23.8824 1.23226C24.2072 1.56467 24.4617 1.96026 24.6305 2.395C24.7993 2.82975 24.8789 3.2946 24.8644 3.76134C24.8793 4.21315 24.8033 4.66333 24.6409 5.08463C24.4786 5.50593 24.2333 5.8896 23.9199 6.21242C23.096 7.0108 21.9918 7.44603 20.8502 7.42237Z" fill="#4C33C3"/>
<path d="M24.7339 11.4312H16.9857V28.2322H24.7339V11.4312Z" fill="#4C33C3"/>
<path d="M8.1807 7.43573C7.46663 7.43746 6.76162 7.27435 6.11953 6.95888C4.97198 6.41296 4.25256 5.20524 4.23931 3.80589C4.22607 2.35306 4.9477 1.08741 6.12173 0.50138C6.75973 0.171688 7.46621 -0.00015466 8.1829 2.13673e-05C8.73446 -0.00863411 9.28226 0.0930357 9.79472 0.299169C10.3072 0.505302 10.7742 0.811821 11.1687 1.20105C11.4938 1.53777 11.7473 1.93791 11.9139 2.37698C12.0805 2.81606 12.1566 3.28484 12.1375 3.75464C12.1578 4.21095 12.0857 4.66664 11.9256 5.09384C11.7654 5.52103 11.5207 5.91075 11.2062 6.23915C10.8051 6.63031 10.3312 6.93742 9.81192 7.14279C9.29265 7.34815 8.73825 7.44771 8.1807 7.43573Z" fill="#4C33C3"/>
<path d="M3.31023 41.0002C2.20221 40.996 1.09593 40.9111 0 40.7462L0 34.8747C0.388818 34.9233 0.780062 34.9493 1.17182 34.9527C2.27523 34.9527 3.08293 34.6898 3.61036 34.1506C4.09144 33.6603 4.32978 32.9451 4.31875 32.0248V11.4268H12.0272V32.5328C12.0272 34.5271 11.7293 36.1605 11.1444 37.3882C9.73649 40.3741 6.10848 41.0002 3.31023 41.0002Z" fill="#4C33C3"/>
<path d="M28.7239 41.0002C27.6159 40.9956 26.5097 40.9107 25.4137 40.7462V34.8747C25.8032 34.9233 26.1952 34.9494 26.5877 34.9527C27.6911 34.9527 28.4966 34.6898 29.0152 34.1528C29.4963 33.6603 29.7369 32.9451 29.7258 32.0248V11.4268H37.4343V32.5328C37.4343 34.5271 37.1341 36.1605 36.5515 37.3882C35.1392 40.3719 31.5156 41.0002 28.7239 41.0002Z" fill="#4C33C3"/>
<path d="M33.5942 7.43806C32.8787 7.44008 32.1722 7.27698 31.5286 6.96121C30.3766 6.41752 29.6572 5.20757 29.644 3.80377C29.6307 2.34871 30.3524 1.08306 31.5286 0.503714C32.1665 0.171277 32.8742 -0.00143846 33.592 0.000127041C34.1457 -0.00942086 34.6958 0.0922312 35.2102 0.299177C35.7247 0.506123 36.1933 0.814236 36.5888 1.20562C36.912 1.54179 37.1637 1.94114 37.3284 2.37913C37.4931 2.81712 37.5674 3.28449 37.5466 3.75252C37.5704 4.20803 37.5017 4.66364 37.3445 5.09131C37.1874 5.51898 36.9453 5.90964 36.633 6.23926C36.2302 6.63213 35.7542 6.94038 35.2326 7.14616C34.7109 7.35194 34.1541 7.45116 33.5942 7.43806Z" fill="#4C33C3"/>
<path d="M52.3281 28.4236C49.6071 28.4236 47.0472 27.9245 45.3038 27.051C43.4205 26.2297 41.9351 24.6899 41.1716 22.7673C40.408 20.8447 40.4282 18.6952 41.2278 16.7876C42.8675 13.2492 46.608 11.4175 52.3369 11.3618H52.615C56.5519 11.3618 59.9394 12.5049 61.9079 14.497C63.3004 15.9075 64.0044 17.7213 63.9978 19.8894C64.0264 23.0468 62.2919 25.7274 59.3634 27.0666C57.598 27.9312 55.0359 28.4236 52.3281 28.4236ZM52.2553 16.293C51.5182 16.293 49.0532 16.4489 48.2565 18.4611C48.0512 18.9213 47.9451 19.4203 47.9451 19.925C47.9451 20.4298 48.0512 20.9288 48.2565 21.389C48.8281 22.7371 50.3177 23.5437 52.2288 23.5437C53.1029 23.5502 53.969 23.375 54.7732 23.029H54.7975C55.1714 22.8629 55.5083 22.6227 55.7885 22.3226C56.0686 22.0225 56.2862 21.6686 56.4284 21.282C56.7849 20.3515 56.7651 19.3168 56.3732 18.4009C55.8237 17.0884 54.3341 16.3019 52.4009 16.3019L52.2553 16.293Z" fill="#4C33C3"/>
</g>
<defs>
<clipPath id="clip0">
<rect width="64" height="41" fill="white"/>
</clipPath>
</defs>
</svg>
